# Blender v2.92.0 OBJ File: 'PS5_projek.blend'
# www.blender.org
o Cylinder
v -0.002644 0.081605 0.432689
v -0.002644 0.035414 0.429635
v -0.092358 0.082227 0.423283
v -0.092358 0.036036 0.420229
v -0.178509 0.090772 0.397041
v -0.178509 0.037801 0.393539
v -0.257786 0.109755 0.355161
v -0.257786 0.040640 0.350591
v -0.327143 0.132843 0.298881
v -0.327143 0.044446 0.293036
v -0.383914 0.154194 0.230037
v -0.383914 0.049071 0.223086
v -0.425918 0.168945 0.151006
v -0.425918 0.054338 0.143428
v -0.451541 0.175625 0.064767
v -0.451541 0.060044 0.057124
v -0.459797 0.181551 -0.024867
v -0.459798 0.065971 -0.032509
v -0.450370 0.187470 -0.114385
v -0.450371 0.071889 -0.122027
v -0.423622 0.192180 -0.200413
v -0.423622 0.077573 -0.207990
v -0.380581 0.187926 -0.280144
v -0.380581 0.082804 -0.287095
v -0.322900 0.175776 -0.350456
v -0.322900 0.087379 -0.356301
v -0.252797 0.160240 -0.408379
v -0.252797 0.091125 -0.412949
v -0.172966 0.146867 -0.451359
v -0.172966 0.093896 -0.454861
v -0.086473 0.141778 -0.477374
v -0.086473 0.095586 -0.480428
v 0.003356 0.142322 -0.485612
v 0.003356 0.096131 -0.488666
v 0.093070 0.141700 -0.476206
v 0.093070 0.095509 -0.479260
v 0.179221 0.146716 -0.449068
v 0.179221 0.093744 -0.452570
v 0.258498 0.160020 -0.405053
v 0.258498 0.090905 -0.409622
v 0.327855 0.175496 -0.346223
v 0.327855 0.087099 -0.352067
v 0.384626 0.187597 -0.275166
v 0.384626 0.082474 -0.282117
v 0.426630 0.191815 -0.194881
v 0.426630 0.077207 -0.202459
v 0.452253 0.187081 -0.108513
v 0.452253 0.071501 -0.116155
v 0.460509 0.181155 -0.018880
v 0.460509 0.065575 -0.026522
v 0.451082 0.175236 0.070639
v 0.451082 0.059656 0.062997
v 0.424334 0.168579 0.156538
v 0.424334 0.053972 0.148960
v 0.381292 0.153865 0.235015
v 0.381292 0.048742 0.228064
v 0.323612 0.132563 0.303115
v 0.323612 0.044166 0.297270
v 0.253509 0.109535 0.358488
v 0.253509 0.040420 0.353918
v 0.173677 0.090621 0.399333
v 0.173677 0.037649 0.395830
v 0.087184 0.082150 0.424451
v 0.087184 0.035959 0.421397
vt 1.000000 1.000000
vt 1.000000 0.500000
vt 0.968750 0.500000
vt 0.937500 0.500000
vt 0.937500 1.000000
vt 0.906250 0.500000
vt 0.906250 1.000000
vt 0.875000 0.500000
vt 0.875000 1.000000
vt 0.843750 0.500000
vt 0.843750 1.000000
vt 0.812500 0.500000
vt 0.812500 1.000000
vt 0.781250 0.500000
vt 0.781250 1.000000
vt 0.750000 0.500000
vt 0.750000 1.000000
vt 0.718750 0.500000
vt 0.718750 1.000000
vt 0.687500 0.500000
vt 0.687500 1.000000
vt 0.656250 0.500000
vt 0.656250 1.000000
vt 0.625000 0.500000
vt 0.625000 1.000000
vt 0.593750 0.500000
vt 0.593750 1.000000
vt 0.562500 0.500000
vt 0.562500 1.000000
vt 0.531250 0.500000
vt 0.531250 1.000000
vt 0.500000 0.500000
vt 0.468750 0.500000
vt 0.468750 1.000000
vt 0.437500 0.500000
vt 0.437500 1.000000
vt 0.406250 0.500000
vt 0.406250 1.000000
vt 0.375000 0.500000
vt 0.375000 1.000000
vt 0.343750 0.500000
vt 0.343750 1.000000
vt 0.312500 0.500000
vt 0.312500 1.000000
vt 0.281250 0.500000
vt 0.281250 1.000000
vt 0.250000 0.500000
vt 0.250000 1.000000
vt 0.218750 0.500000
vt 0.218750 1.000000
vt 0.187500 0.500000
vt 0.187500 1.000000
vt 0.156250 0.500000
vt 0.156250 1.000000
vt 0.125000 0.500000
vt 0.125000 1.000000
vt 0.093750 0.500000
vt 0.093750 1.000000
vt 0.062500 0.500000
vt 0.028269 0.341844
vt 0.471731 0.158156
vt 0.158156 0.028269
vt 0.062500 1.000000
vt 0.031250 0.500000
vt 0.031250 1.000000
vt 0.000000 0.500000
vt 0.985388 0.296822
vt 0.514611 0.203179
vt 0.796822 0.014612
vt 0.968750 1.000000
vt 0.500000 1.000000
vt 0.341844 0.471731
vt 0.250000 0.490000
vt 0.296822 0.485388
vt 0.203179 0.485389
vt 0.158156 0.471731
vt 0.080295 0.419706
vt 0.116663 0.449553
vt 0.050447 0.383337
vt 0.010000 0.250000
vt 0.014612 0.296822
vt 0.028269 0.158156
vt 0.014611 0.203179
vt 0.080294 0.080294
vt 0.050447 0.116663
vt 0.116663 0.050447
vt 0.250000 0.010000
vt 0.203178 0.014612
vt 0.341844 0.028269
vt 0.296822 0.014612
vt 0.419706 0.080294
vt 0.383337 0.050447
vt 0.449553 0.116663
vt 0.490000 0.250000
vt 0.485388 0.203178
vt 0.485388 0.296822
vt 0.471731 0.341844
vt 0.419706 0.419706
vt 0.449553 0.383337
vt 0.383337 0.449553
vt 0.000000 1.000000
vt 0.703179 0.485389
vt 0.796822 0.485388
vt 0.750000 0.490000
vt 0.883337 0.449553
vt 0.841844 0.471731
vt 0.949553 0.383337
vt 0.919706 0.419706
vt 0.971731 0.341844
vt 0.985388 0.203178
vt 0.990000 0.250000
vt 0.971731 0.158156
vt 0.949553 0.116663
vt 0.919706 0.080294
vt 0.883337 0.050447
vt 0.841844 0.028269
vt 0.703178 0.014612
vt 0.750000 0.010000
vt 0.616663 0.050447
vt 0.658156 0.028269
vt 0.550447 0.116663
vt 0.580294 0.080294
vt 0.528269 0.158156
vt 0.514612 0.296822
vt 0.510000 0.250000
vt 0.550447 0.383337
vt 0.528269 0.341844
vt 0.580295 0.419706
vt 0.616663 0.449553
vt 0.658156 0.471731
vn -0.0047 -0.7322 0.6810
vn -0.0047 0.6362 0.7715
vn -0.1343 0.5061 0.8520
vn -0.2857 0.4315 0.8557
vn -0.2829 -0.7284 0.6239
vn -0.3620 0.6026 0.7111
vn -0.4083 -0.7239 0.5560
vn -0.3874 0.6831 0.6191
vn -0.5180 -0.7179 0.4649
vn -0.4531 0.7566 0.4713
vn -0.6078 -0.7106 0.3543
vn -0.5212 0.7958 0.3082
vn -0.6743 -0.7023 0.2283
vn -0.6851 0.7016 0.1961
vn -0.7148 -0.6933 0.0918
vn -0.7279 0.6845 0.0405
vn -0.7279 -0.6839 -0.0500
vn -0.6996 0.7072 -0.1022
vn -0.7129 -0.6745 -0.1916
vn -0.5654 0.7868 -0.2474
vn -0.6706 -0.6655 -0.3275
vn -0.5049 0.7707 -0.3886
vn -0.6026 -0.6572 -0.4527
vn -0.4435 0.6954 -0.5654
vn -0.5113 -0.6500 -0.5621
vn -0.3649 0.6181 -0.6962
vn -0.4004 -0.6441 -0.6518
vn -0.2748 0.5406 -0.7951
vn -0.2741 -0.6397 -0.7180
vn -0.1234 0.6742 -0.7281
vn -0.1373 -0.6370 -0.7585
vn 0.0047 0.7322 -0.6810
vn 0.1328 0.6632 -0.7366
vn 0.1466 -0.6371 -0.7566
vn 0.2857 0.5404 -0.7914
vn 0.2829 -0.6399 -0.7144
vn 0.3372 0.7132 -0.6144
vn 0.4083 -0.6444 -0.6465
vn 0.3874 0.7586 -0.5238
vn 0.5180 -0.6504 -0.5554
vn 0.4452 0.8207 -0.3579
vn 0.6078 -0.6578 -0.4448
vn 0.4986 0.8444 -0.1958
vn 0.6743 -0.6661 -0.3188
vn 0.6845 0.7219 -0.1019
vn 0.7148 -0.6751 -0.1823
vn 0.7279 0.6839 0.0500
vn 0.7279 -0.6845 -0.0405
vn 0.6429 0.7381 0.2046
vn 0.7129 -0.6939 0.1011
vn 0.4953 0.8108 0.3118
vn 0.6706 -0.7028 0.2371
vn 0.5019 0.7201 0.4791
vn 0.6026 -0.7111 0.3622
vn 0.4435 0.6149 0.6520
vn 0.5113 -0.7184 0.4717
vn 0.3649 0.5211 0.7715
vn 0.4004 -0.7243 0.5613
vn 0.2748 0.4313 0.8593
vn 0.2741 -0.7287 0.6276
vn 0.1269 0.5718 0.8105
vn 0.1373 -0.7313 0.6680
vn -0.1466 -0.7312 0.6662
vn 0.0047 -0.6362 -0.7715
s 1
f 2/1/1 1/2/2 3/3/3
f 3/3/3 5/4/4 6/5/5
f 5/4/4 7/6/6 8/7/7
f 7/6/6 9/8/8 10/9/9
f 9/8/8 11/10/10 12/11/11
f 11/10/10 13/12/12 14/13/13
f 13/12/12 15/14/14 16/15/15
f 15/14/14 17/16/16 18/17/17
f 17/16/16 19/18/18 20/19/19
f 20/19/19 19/18/18 21/20/20
f 22/21/21 21/20/20 23/22/22
f 24/23/23 23/22/22 25/24/24
f 26/25/25 25/24/24 27/26/26
f 28/27/27 27/26/26 29/28/28
f 30/29/29 29/28/28 31/30/30
f 32/31/31 31/30/30 33/32/32
f 33/32/32 35/33/33 36/34/34
f 35/33/33 37/35/35 38/36/36
f 37/35/35 39/37/37 40/38/38
f 39/37/37 41/39/39 42/40/40
f 41/39/39 43/41/41 44/42/42
f 43/41/41 45/43/43 46/44/44
f 45/43/43 47/45/45 48/46/46
f 47/45/45 49/47/47 50/48/48
f 50/48/48 49/47/47 51/49/49
f 52/50/50 51/49/49 53/51/51
f 54/52/52 53/51/51 55/53/53
f 56/54/54 55/53/53 57/55/55
f 58/56/56 57/55/55 59/57/57
f 60/58/58 59/57/57 61/59/59
f 54/60/52 22/61/21 38/62/36
f 62/63/60 61/59/59 63/64/61
f 64/65/62 63/64/61 1/66/2
f 15/67/14 47/68/45 31/69/30
f 2/1/1 3/3/3 4/70/63
f 3/3/3 6/5/5 4/70/63
f 5/4/4 8/7/7 6/5/5
f 7/6/6 10/9/9 8/7/7
f 9/8/8 12/11/11 10/9/9
f 11/10/10 14/13/13 12/11/11
f 13/12/12 16/15/15 14/13/13
f 15/14/14 18/17/17 16/15/15
f 17/16/16 20/19/19 18/17/17
f 20/19/19 21/20/20 22/21/21
f 22/21/21 23/22/22 24/23/23
f 24/23/23 25/24/24 26/25/25
f 26/25/25 27/26/26 28/27/27
f 28/27/27 29/28/28 30/29/29
f 30/29/29 31/30/30 32/31/31
f 32/31/31 33/32/32 34/71/64
f 33/32/32 36/34/34 34/71/64
f 35/33/33 38/36/36 36/34/34
f 37/35/35 40/38/38 38/36/36
f 39/37/37 42/40/40 40/38/38
f 41/39/39 44/42/42 42/40/40
f 43/41/41 46/44/44 44/42/42
f 45/43/43 48/46/46 46/44/44
f 47/45/45 50/48/48 48/46/46
f 50/48/48 51/49/49 52/50/50
f 52/50/50 53/51/51 54/52/52
f 54/52/52 55/53/53 56/54/54
f 56/54/54 57/55/55 58/56/56
f 58/56/56 59/57/57 60/58/58
f 60/58/58 61/59/59 62/63/60
f 6/72/5 2/73/1 4/74/63
f 2/73/1 6/72/5 64/75/62
f 64/75/62 6/72/5 62/76/60
f 62/76/60 58/77/56 60/78/58
f 58/77/56 54/60/52 56/79/54
f 54/60/52 50/80/48 52/81/50
f 50/80/48 46/82/44 48/83/46
f 46/82/44 42/84/40 44/85/42
f 42/84/40 38/62/36 40/86/38
f 38/62/36 34/87/64 36/88/34
f 34/87/64 30/89/29 32/90/31
f 30/89/29 26/91/25 28/92/27
f 26/91/25 22/61/21 24/93/23
f 22/61/21 18/94/17 20/95/19
f 18/94/17 22/61/21 16/96/15
f 16/96/15 22/61/21 14/97/13
f 14/97/13 10/98/9 12/99/11
f 10/98/9 6/72/5 8/100/7
f 62/76/60 6/72/5 58/77/56
f 58/77/56 6/72/5 54/60/52
f 54/60/52 38/62/36 50/80/48
f 50/80/48 38/62/36 46/82/44
f 46/82/44 38/62/36 42/84/40
f 38/62/36 22/61/21 34/87/64
f 34/87/64 22/61/21 30/89/29
f 30/89/29 22/61/21 26/91/25
f 14/97/13 6/72/5 10/98/9
f 22/61/21 6/72/5 14/97/13
f 6/72/5 22/61/21 54/60/52
f 62/63/60 63/64/61 64/65/62
f 64/65/62 1/66/2 2/101/1
f 63/102/61 3/103/3 1/104/2
f 3/103/3 7/105/6 5/106/4
f 7/105/6 11/107/10 9/108/8
f 11/107/10 7/105/6 13/109/12
f 13/109/12 7/105/6 15/67/14
f 15/67/14 19/110/18 17/111/16
f 19/110/18 15/67/14 21/112/20
f 21/112/20 15/67/14 23/113/22
f 23/113/22 31/69/30 25/114/24
f 25/114/24 31/69/30 27/115/26
f 27/115/26 31/69/30 29/116/28
f 31/69/30 35/117/33 33/118/32
f 35/117/33 39/119/37 37/120/35
f 39/119/37 43/121/41 41/122/39
f 43/121/41 47/68/45 45/123/43
f 47/68/45 51/124/49 49/125/47
f 51/124/49 55/126/53 53/127/51
f 55/126/53 63/102/61 57/128/55
f 57/128/55 63/102/61 59/129/57
f 59/129/57 63/102/61 61/130/59
f 63/102/61 7/105/6 3/103/3
f 31/69/30 47/68/45 35/117/33
f 35/117/33 47/68/45 39/119/37
f 39/119/37 47/68/45 43/121/41
f 47/68/45 63/102/61 51/124/49
f 51/124/49 63/102/61 55/126/53
f 63/102/61 15/67/14 7/105/6
f 15/67/14 31/69/30 23/113/22
f 63/102/61 47/68/45 15/67/14
